<?xml version="1.0" encoding="iso-8859-1"?>
<!-- Generator: Adobe Illustrator 19.0.0, SVG Export Plug-In . SVG Version: 6.00 Build 0)  -->
<svg version="1.1" id="Capa_1" xmlns="http://www.w3.org/2000/svg" xmlns:xlink="http://www.w3.org/1999/xlink" x="0px" y="0px"
	 viewBox="0 0 490.594 490.594" style="enable-background:new 0 0 490.594 490.594;" xml:space="preserve">
<g>
	<g>
		<path d="M383.537,4.194l-30.6,37.1c-3.9,4.7-3.4,11.5,1,15.7c4.8,4.6,12.6,4.1,16.8-1l30.6-37.1c3.9-4.7,3.4-11.5-1-15.7
			C395.537-1.406,387.837-1.006,383.537,4.194z"/>
		<path d="M437.737,51.794c-3.1-5.6-10.1-7.6-15.6-4.5l-41.4,22.7c-5.6,3.1-7.6,10.1-4.5,15.6l0.1,0.3c3.1,5.6,10.1,7.6,15.6,4.6
			l41.4-22.7c5.6-3.1,7.6-10.1,4.6-15.6L437.737,51.794z"/>
		<path d="M148.937,382.994l-107.9,58.4c-5.9,3.2-9.6,9.4-9.6,16.1v22.1c0,6.1,4.9,11,11,11h98.9c8,0,15.8-2,22.8-5.9l71.9-39.5
			c12-5.2,31.9-14.2,50.8-25.2c12.6-5.7,25.5-12.6,34.5-20.4c30.6-26.4,8.7-45.8,8.7-45.8c11-24.3-9.3-36-9.3-36
			c7.1-26.4-17.2-32-17.2-32s1.3-18.9-16.1-23.1c-14.7-3.6-35.1,9.1-46.8,17.7l-28.6-30.7l24.6-13.5l-5.5-9.9
			c31.5-11.2,86.1-25.2,136.9-11.9c3.6,5.7,11.3,7.4,17.1,3.4c5-3.6,6.2-10.6,3.2-16l-33.7-61.3c10.7-12.4,13.1-30.5,4.8-45.7
			c-8.3-15.2-25-22.8-41.2-20.5l-33.4-60.8c-3-5.4-9.5-8.2-15.2-5.9c-6.5,2.7-9.2,10.1-6.3,16.2c-16,50-57.1,88.5-83.5,109.2
			l-5.5-9.9l-66.2,36.4c-13.2,7.2-18,23.7-10.7,36.9l5.8,10.6l-7.2,4c-4.4,2.4-6,8-3.6,12.4l16.4,29.8c2.4,4.4,8,6,12.4,3.6l7.2-4
			l5,9.2c7.2,13.2,23.7,18,36.9,10.7l6.1-3.3l23,25.1c-24,9.2-35.7,44.7-35.7,44.7c-1.8,6.7-1.7,13-1.2,17.8l0,0
			c0.1,1.2,0.3,2.3,0.5,3.3c0.1,1.5-0.3,3.9-1.1,6.7C160.037,373.794,155.237,379.494,148.937,382.994z"/>
		<path d="M388.637,120.194c1.2,5.9,6.7,10,12.7,9.2l47.7-6c6.6-0.8,11.2-7.1,9.9-13.6c-1.2-5.9-6.7-10-12.7-9.2l-47.7,6
			C391.837,107.394,387.337,113.594,388.637,120.194z"/>
	</g>
</g>
<g>
</g>
<g>
</g>
<g>
</g>
<g>
</g>
<g>
</g>
<g>
</g>
<g>
</g>
<g>
</g>
<g>
</g>
<g>
</g>
<g>
</g>
<g>
</g>
<g>
</g>
<g>
</g>
<g>
</g>
</svg>
