<?xml version="1.0" encoding="iso-8859-1"?>
<!-- Generator: Adobe Illustrator 19.0.0, SVG Export Plug-In . SVG Version: 6.00 Build 0)  -->
<svg version="1.1" id="Capa_1" xmlns="http://www.w3.org/2000/svg" xmlns:xlink="http://www.w3.org/1999/xlink" x="0px" y="0px"
	 viewBox="0 0 60 60" style="enable-background:new 0 0 60 60;" xml:space="preserve">
<g>
	<g>
		<path d="M10,16c0.256,0,0.512-0.098,0.707-0.293l4-4c0.391-0.391,0.391-1.023,0-1.414s-1.023-0.391-1.414,0l-4,4
			c-0.391,0.391-0.391,1.023,0,1.414C9.488,15.902,9.744,16,10,16z"/>
		<path d="M10,21c0.256,0,0.512-0.098,0.707-0.293l2-2c0.391-0.391,0.391-1.023,0-1.414s-1.023-0.391-1.414,0l-2,2
			c-0.391,0.391-0.391,1.023,0,1.414C9.488,20.902,9.744,21,10,21z"/>
		<path d="M13.29,15.29C13.11,15.48,13,15.74,13,16s0.11,0.52,0.29,0.71C13.48,16.89,13.74,17,14,17c0.27,0,0.52-0.11,0.71-0.29
			C14.89,16.52,15,16.26,15,16s-0.11-0.52-0.29-0.71C14.34,14.92,13.67,14.92,13.29,15.29z"/>
		<path d="M15.293,14.707C15.488,14.902,15.744,15,16,15c0.256,0,0.512-0.098,0.707-0.293l3-3c0.391-0.391,0.391-1.023,0-1.414
			s-1.023-0.391-1.414,0l-3,3C14.902,13.684,14.902,14.316,15.293,14.707z"/>
		<path d="M10,26c0.256,0,0.512-0.098,0.707-0.293l9-9c0.391-0.391,0.391-1.023,0-1.414s-1.023-0.391-1.414,0l-9,9
			c-0.391,0.391-0.391,1.023,0,1.414C9.488,25.902,9.744,26,10,26z"/>
		<path d="M20.29,14.71C20.48,14.89,20.74,15,21,15s0.52-0.11,0.71-0.29C21.89,14.52,22,14.27,22,14c0-0.26-0.11-0.52-0.29-0.71
			c-0.37-0.37-1.04-0.37-1.42,0C20.11,13.48,20,13.74,20,14C20,14.27,20.11,14.52,20.29,14.71z"/>
		<path d="M23,13c0.256,0,0.512-0.098,0.707-0.293l1-1c0.391-0.391,0.391-1.023,0-1.414s-1.023-0.391-1.414,0l-1,1
			c-0.391,0.391-0.391,1.023,0,1.414C22.488,12.902,22.744,13,23,13z"/>
		<path d="M60,43V1H0v42h26v6.129C22.424,49.368,13,50.345,13,54c0,3.955,11.12,5,17,5s17-1.045,17-5c0-3.655-9.424-4.632-13-4.871
			V43H60z M2,41V3h56v38H34h-8H2z M45,54c0,0.871-5.256,3-15,3s-15-2.129-15-3c0-0.643,3.288-2.372,11-2.87v2.002
			C26,54.162,26.838,55,27.868,55h4.265C33.162,55,34,54.162,34,53.132V51.13C41.712,51.628,45,53.357,45,54z M32,49.024V53h-4
			v-3.976V43h4V49.024z"/>
		<path d="M56,5H4v34h52V5z M54,37H6V7h48V37z"/>
	</g>
</g>
<g>
</g>
<g>
</g>
<g>
</g>
<g>
</g>
<g>
</g>
<g>
</g>
<g>
</g>
<g>
</g>
<g>
</g>
<g>
</g>
<g>
</g>
<g>
</g>
<g>
</g>
<g>
</g>
<g>
</g>
</svg>
