<?xml version="1.0" encoding="iso-8859-1"?>
<!-- Generator: Adobe Illustrator 19.0.0, SVG Export Plug-In . SVG Version: 6.00 Build 0)  -->
<svg version="1.1" id="Layer_1" xmlns="http://www.w3.org/2000/svg" xmlns:xlink="http://www.w3.org/1999/xlink" x="0px" y="0px"
	 viewBox="0 0 512 512" style="enable-background:new 0 0 512 512;" xml:space="preserve">
<g>
	<g>
		<path d="M473.517,109.116c-16.735,0-115.851,0-130.478,0V57.208c0-10.626-8.615-19.241-19.241-19.241H188.202
			c-10.626,0-19.241,8.615-19.241,19.241v51.907c-14.953,0-111.804,0-130.478,0C17.263,109.115,0,126.378,0,147.597v287.953
			c0,21.219,17.263,38.483,38.483,38.483c13.923,0,420.371,0,435.035,0c21.219,0,38.483-17.263,38.483-38.483V147.597
			C512,126.379,494.737,109.116,473.517,109.116z M116,147.597h20.87v155.137H116V147.597z M136.87,435.551H116v-33.493h20.87
			V435.551z M150.403,363.575h-47.937v-22.358h47.937V363.575z M198.726,196.531c0-15.815,12.82-28.635,28.635-28.635
			s28.635,12.82,28.635,28.635c0,15.815-12.82,28.635-28.635,28.635S198.726,212.346,198.726,196.531z M298.536,334.3
			l-19.476,72.684c-1.278,4.769-7.24,6.366-10.73,2.876l-53.209-53.209c-3.492-3.492-1.893-9.453,2.875-10.73l72.684-19.476
			C295.45,325.167,299.814,329.531,298.536,334.3z M304.555,109.112h-97.111V76.449h97.111V109.112z M375.13,147.597H396v155.137
			h-20.87V147.597z M396,435.551h-20.87v-33.493H396V435.551z M409.533,363.575h-47.937v-22.358h47.937V363.575z"/>
	</g>
</g>
<g>
</g>
<g>
</g>
<g>
</g>
<g>
</g>
<g>
</g>
<g>
</g>
<g>
</g>
<g>
</g>
<g>
</g>
<g>
</g>
<g>
</g>
<g>
</g>
<g>
</g>
<g>
</g>
<g>
</g>
</svg>
